<svg width="400" height="400" viewBox="0 0 400 400" fill="none" xmlns="http://www.w3.org/2000/svg">
<g clip-path="url(#clip0_228_3276)">
<path d="M267.167 15.7642C297.102 11.4865 323.236 6.87697 332.561 5.10692C333.851 10.7232 337.494 22.6834 341.745 25.5938C347.059 29.2318 387.593 59.1986 356.486 94.4501C325.379 129.702 283.779 145.438 254.575 159.249C225.37 173.059 236.099 179.956 236.656 184.397C237.213 188.839 244.565 193.997 268.223 176.115C287.149 161.81 336.481 135.209 358.781 123.697C362.762 128.831 369.101 145.161 362.603 169.41C328.635 210.126 278.435 224.06 251.272 226.339C224.108 228.618 218.506 244.312 229.652 245.741C238.57 246.883 292.61 239.826 318.516 236.155C346.307 236.747 351.745 232.1 353.407 236.327L353.393 236.517C352.74 245.41 352.245 252.144 336.185 275.828C320.011 299.68 312.182 297.608 303.671 299.38C296.863 300.797 252.989 294.251 231.903 290.801C200.99 280.997 187.862 293.482 227.921 313.484C292.54 316.147 299.077 309.57 310.557 303.67L295.673 321.406C284.116 338.894 258.886 373.683 250.423 372.931C241.96 372.18 221.485 375.316 212.306 376.978C205.296 380.972 199.001 404.463 170.492 397.426C172.612 386.382 166.2 375.63 162.729 371.634C158.158 369.568 147.722 361.664 142.541 346.578C137.359 331.492 151.113 310.672 158.638 302.148C158.327 301.569 156.947 301.159 153.911 304.143C112.738 358.709 100.884 346.881 90.5271 350.328C80.1704 353.775 75.0707 345.426 73.4384 342.391C71.8062 339.355 71.3018 328.199 64.9347 318.06C58.5675 307.922 42.5511 311.629 35.5937 308.909C28.6364 306.188 25.7289 292.266 25.2357 277.156C24.8412 265.068 30.9173 257.256 34.0047 254.86C34.6519 262.876 38.7475 271.061 41.3537 273.07C57.0813 288.695 77.633 279.797 79.4604 272.977C80.9223 267.521 72.2948 264.949 67.7983 264.345C59.2315 262.416 40.5303 256.324 34.2602 247.388C19.9159 216.169 32.7013 194.531 39.2669 181.763C44.5194 171.548 53.1833 166.769 56.8587 165.657C56.9506 176.614 61.3202 203.248 78.0633 222.124C94.8064 241 106.601 239.054 110.405 235.721C111.579 235.254 110.488 230.198 96.7384 213.71C79.5515 193.1 64.2299 175.96 65.1882 156.737C65.9548 141.358 75.2918 124.245 79.8645 117.61C87.2878 109.465 106.151 93.8307 122.216 96.4594C105.987 140.078 115.606 125.04 113.065 147.564C110.523 170.087 129.534 196.928 131.633 200.831C133.732 204.734 142.565 206.97 144.686 202.967C146.383 199.764 139.556 181.693 135.93 173.058C131.223 155.651 124.717 140.114 125.466 119.535C125.946 106.358 130.074 88.6004 137.344 75.2046C152.525 47.2348 160.498 46.1663 168.775 43.9611C175.396 42.197 187.113 44.1931 192.144 45.4118C189.056 47.8069 181.357 56.4611 175.259 71.9163C155.405 130.366 160.407 126.043 164.54 144.517C164.485 164.283 196.695 177.068 191.459 145.757C186.223 114.447 189.824 72.3219 196.006 53.1628C202.188 34.0037 227.933 23.9781 237.458 18.4176C245.079 13.9693 252.758 15.6476 255.645 17.0428C252.328 17.6866 243.6 20.53 235.225 26.7532C224.756 34.5322 217.844 51.199 216.359 67.1716C214.874 83.1442 219.812 89.4892 225.209 87.6037C229.526 86.0953 230.921 68.895 231.078 60.4834C230.635 47.3594 237.233 20.0418 267.167 15.7642Z" fill="#FFCE5C"/>
</g>
<defs>
<clipPath id="clip0_228_3276">
<rect width="400" height="400" fill="white"/>
</clipPath>
</defs>
</svg>
